<svg fill="none" height="24" viewBox="0 0 24 24" width="24" xmlns="http://www.w3.org/2000/svg"><path clip-rule="evenodd" d="m7.94513 1.25h8.10977c1.3676-.00002 2.4699-.00004 3.3369.11652.9001.12102 1.6579.37991 2.2599.98183.6019.60192.8608 1.35979.9818 2.2599.1165.86697.1165 1.96929.1165 3.33688v4.10977c0 1.3676 0 2.4699-.1165 3.3369-.121.9001-.3799 1.6579-.9818 2.2598-.498.498-1.1048.763-1.8156.9077-.6902.1405-1.5228.1759-2.5085.1864l-.0056.0001-.2244.0006c-.0968.3042-.2541.5936-.4721.8494-.1311.1538-.2103.345-.2264.5465-.0961 1.2043-1.0525 2.1607-2.2568 2.2568-.2014.0161-.3927.0953-.5465.2264-.9196.7836-2.272.7836-3.1916 0-.1538-.1311-.345-.2103-.54649-.2264-1.20435-.0961-2.1607-1.0525-2.25681-2.2568-.01607-.2014-.09529-.3927-.22636-.5465-.21772-.2555-.37495-.5444-.47169-.8481-1.04033-.007-1.91115-.0352-2.6265-.1666-.75799-.1393-1.40307-.4045-1.928-.9294-.60192-.602-.86081-1.3598-.98183-2.2599-.11656-.867-.11654-1.9693-.11652-3.3369v-4.10977c-.00002-1.36759-.00004-2.46991.11652-3.33688.12102-.90011.37991-1.65798.98183-2.2599s1.35979-.86081 2.2599-.98183c.86697-.11656 1.96929-.11654 3.33688-.11652zm-1.04079 15.9976c.09686-.302.2536-.5892.4702-.8434.13107-.1538.21029-.345.22636-.5465.09611-1.2043 1.05246-2.1607 2.25681-2.2568.20149-.0161.39269-.0953.54649-.2264.9196-.7836 2.272-.7836 3.1916 0 .1538.1311.3451.2103.5465.2264 1.2043.0961 2.1607 1.0525 2.2568 2.2568.0161.2015.0953.3927.2264.5465.2163.2538.3729.5406.4698.8422l.2191-.0007c.9853-.0105 1.6878-.0474 2.2224-.1562.5145-.1048.8222-.2666 1.0542-.4985.2768-.2768.4572-.6653.5559-1.3991.1015-.7554.1031-1.7565.1031-3.1919v-4c0-1.43542-.0016-2.43653-.1031-3.19188-.0987-.73377-.2791-1.12235-.5559-1.39911s-.6653-.45721-1.3991-.55586c-.7554-.10156-1.7565-.10315-3.1919-.10315h-8c-1.43542 0-2.43653.00159-3.19188.10315-.73377.09865-1.12235.2791-1.39911.55586s-.45721.66534-.55586 1.39911c-.10156.75535-.10315 1.75647-.10315 3.19188v4c0 1.4354.00159 2.4365.10315 3.1919.09865.7338.2791 1.1223.55586 1.3991.24345.2434.57153.4106 1.13834.5147.57018.1048 1.3159.1347 2.35699.1419zm1.34566-11.2476c0-.41421.33579-.75.75-.75h6c.4142 0 .75.33579.75.75s-.3358.75-.75.75h-6c-.41421 0-.75-.33579-.75-.75zm-2 3.5c0-.41421.33579-.75.75-.75h10c.4142 0 .75.33579.75.75s-.3358.75-.75.75h-10c-.41421 0-.75-.33579-.75-.75zm6.3729 5.0162c-.3589-.3059-.8869-.3059-1.2458 0-.394.3358-.884.5388-1.40007.5799-.47008.0376-.84337.4108-.88088.8809-.04119.5161-.24413 1.0061-.57994 1.4001-.30587.3589-.30587.8869 0 1.2458.33581.394.53875.884.57994 1.4001.03751.4701.4108.8433.88088.8809.51607.0411 1.00607.2441 1.40007.5799.3589.3059.8869.3059 1.2458 0 .394-.3358.884-.5388 1.4001-.5799.4701-.0376.8433-.4108.8809-.8809.0411-.5161.2441-1.0061.5799-1.4001.3059-.3589.3059-.8869 0-1.2458-.3358-.394-.5388-.884-.5799-1.4001-.0376-.4701-.4108-.8433-.8809-.8809-.5161-.0411-1.0061-.2441-1.4001-.5799zm.3654 1.9355c.3028-.2826.7774-.2663 1.06.0366.2826.3028.2663.7774-.0366 1.06l-2.1428 2c-.2882.2689-.7353.2689-1.0235 0l-.85714-.8c-.30281-.2826-.31918-.7572-.03655-1.06.28259-.3029.75719-.3192 1.05999-.0366l.3454.3224z" fill="#1c274d" fill-rule="evenodd"/></svg>